# File created by Blade
# Date/Time:  Wed Apr 08 16:19:59 2015
# Frame Rate: 120.000 fps
#------------------------------------------------------
:FULLY-SPECIFIED
:DEGREES
2831
root -18.360053 27.086999 -1.814943 367.035878 -82.067352 -423.278891
Spine -76.329361 -16.169223 6.070284
Head -94.258869 5.506946 16.354317
LeftShoulder -17.133944 -3.373912 50.479653
LeftArm 223.999731 -62.106744 -207.953188
LeftForeArm -6.101466 -0.000000 42.215245
LeftHand 20.357759 -0.000000 102.828033
LeftHandThumb1 -26.253704 0.000000 33.147579
RightShoulder -30.702755 42.698694 -65.885085
RightArm -54.022564 67.248685 -39.355457
RightForeArm 10.960382 -0.000000 62.044424
RightHand 19.898959 -0.000000 -88.156291
RightHandThumb1 -24.326973 -0.000000 -32.862282
LeftUpLeg 6.072393 9.409469 13.838416
LeftLeg 77.276541 -0.000000 -0.000000
LeftFoot -24.340925 4.252477 -18.359854
LeftToeBase -13.215549 -0.000000 0.000000
RightUpLeg 1.033422 -21.291391 -9.318858
RightLeg 75.988973 -0.000000 -0.000000
RightFoot 7.871996 -9.273357 1.487084
RightToeBase -28.628465 -0.000000 0.000000
2832
root -18.383739 27.057061 -1.814687 366.919709 -82.014942 -422.973005
Spine -76.464592 -16.181301 6.074170
Head -94.281115 5.549695 16.432773
LeftShoulder -17.152747 -3.350506 50.418917
LeftArm 223.635465 -62.040616 -207.564462
LeftForeArm -6.095117 0.000000 42.209744
LeftHand 20.600930 0.000000 102.968860
LeftHandThumb1 -26.253704 0.000000 33.147579
RightShoulder -30.622987 42.676229 -65.858852
RightArm -54.197762 67.162564 -39.491205
RightForeArm 11.041460 -0.000000 62.186771
RightHand 19.904661 -0.000000 -88.082022
RightHandThumb1 -24.326973 -0.000000 -32.862282
LeftUpLeg 5.997315 9.506911 13.854369
LeftLeg 77.470049 -0.000000 -0.000000
LeftFoot -24.950936 4.348914 -18.188256
LeftToeBase -12.806953 -0.000000 0.000000
RightUpLeg 0.989487 -21.329296 -9.240907
RightLeg 76.040928 -0.000000 -0.000000
RightFoot 6.865381 -9.360004 1.630096
RightToeBase -27.764740 -0.000000 0.000000
2833
root -18.411507 27.025300 -1.810502 366.727703 -81.983987 -422.600715
Spine -76.574157 -16.152251 6.063697
Head -94.334455 5.558881 16.537783
LeftShoulder -17.171382 -3.342641 50.334986
LeftArm 223.333957 -61.995854 -207.248079
LeftForeArm -5.840166 -0.000000 42.247605
LeftHand 20.326329 -0.000000 102.939492
LeftHandThumb1 -26.253704 0.000000 33.147579
RightShoulder -30.574338 42.610433 -65.889446
RightArm -54.438750 67.095367 -39.594775
RightForeArm 11.140529 0.000000 62.401249
RightHand 19.950469 -0.000000 -87.838554
RightHandThumb1 -24.326973 -0.000000 -32.862282
LeftUpLeg 5.941110 9.620649 13.859563
LeftLeg 77.692122 -0.000000 -0.000000
LeftFoot -25.517042 4.227177 -18.439408
LeftToeBase -12.620578 -0.000000 0.000000
RightUpLeg 0.963854 -21.343759 -9.187293
RightLeg 76.096765 -0.000000 -0.000000
RightFoot 5.744062 -9.456055 1.795501
RightToeBase -26.607818 -0.000000 0.000000
2834
root -18.445761 26.993719 -1.802488 366.145289 -81.934392 -421.901832
Spine -76.622534 -16.152865 6.011739
Head -94.396286 5.592285 16.553507
LeftShoulder -17.139757 -3.298915 50.211620
LeftArm 223.187514 -61.900631 -207.047229
LeftForeArm -5.788937 -0.000000 42.260995
LeftHand 20.256779 -0.000000 103.010414
LeftHandThumb1 -26.253704 0.000000 33.147579
RightShoulder -30.490069 42.492423 -65.898642
RightArm -54.926882 67.131600 -39.859649
RightForeArm 11.250529 -0.000000 62.726838
RightHand 19.864275 -0.000000 -87.590512
RightHandThumb1 -24.326973 -0.000000 -32.862282
LeftUpLeg 5.955375 9.677149 13.817657
LeftLeg 77.904063 -0.000000 -0.000000
LeftFoot -26.084092 4.136784 -18.756049
LeftToeBase -12.627330 -0.000000 0.000000
RightUpLeg 1.039739 -21.356750 -9.199946
RightLeg 76.145416 -0.000000 -0.000000
RightFoot 4.524994 -9.607062 2.033667
RightToeBase -25.451581 -0.000000 0.000000
2835
root -18.480775 26.960076 -1.793576 365.582257 -81.858131 -421.216351
Spine -76.679873 -16.179120 5.982368
Head -94.476786 5.657245 16.475610
LeftShoulder -17.093813 -3.575955 50.148461
LeftArm 223.486418 -62.112478 -207.229420
LeftForeArm -5.851486 -0.000000 42.279673
LeftHand 20.624717 -0.000000 102.940367
LeftHandThumb1 -26.253704 0.000000 33.147579
RightShoulder -30.392773 42.291288 -65.814330
RightArm -55.532229 67.365442 -40.257477
RightForeArm 11.234009 -0.000000 63.041634
RightHand 19.836115 0.000000 -87.463069
RightHandThumb1 -24.326973 -0.000000 -32.862282
LeftUpLeg 5.943126 9.703544 13.773341
LeftLeg 78.138480 -0.000000 -0.000000
LeftFoot -26.490985 4.075203 -19.116907
LeftToeBase -13.243618 -0.000000 0.000000
RightUpLeg 1.144806 -21.410741 -9.208868
RightLeg 76.148836 -0.000000 -0.000000
RightFoot 3.165560 -9.803589 2.300498
RightToeBase -24.043418 -0.000000 0.000000
2836
root -18.523602 26.928810 -1.780818 364.969762 -81.799448 -420.498012
Spine -76.671354 -16.098423 5.838779
Head -94.585906 5.463587 16.352665
LeftShoulder -17.529832 -3.579110 50.090938
LeftArm 221.487442 -62.296129 -205.692453
LeftForeArm -5.474388 0.000000 42.772290
LeftHand 20.696814 -0.000000 103.337063
LeftHandThumb1 -26.253704 0.000000 33.147579
RightShoulder -30.399677 41.965971 -65.950344
RightArm -56.102679 67.539926 -40.544887
RightForeArm 11.228857 -0.000000 63.295649
RightHand 19.818613 0.000000 -87.262621
RightHandThumb1 -24.326973 -0.000000 -32.862282
LeftUpLeg 5.963455 9.727082 13.722211
LeftLeg 78.365835 -0.000000 -0.000000
LeftFoot -27.017835 4.077058 -19.214513
LeftToeBase -13.200202 -0.000000 0.000000
RightUpLeg 1.301612 -21.422993 -9.224732
RightLeg 76.106562 -0.000000 -0.000000
RightFoot 1.694280 -10.061298 2.744403
RightToeBase -22.761764 -0.000000 0.000000
2837
root -18.563828 26.889811 -1.764655 364.154816 -81.717599 -419.560176
Spine -76.751405 -16.147777 5.841815
Head -94.598040 5.551476 16.232382
LeftShoulder -17.005431 -3.311998 50.169008
LeftArm 223.193160 -61.844260 -207.527916
LeftForeArm -5.741200 -0.000000 42.620054
LeftHand 20.623479 -0.000000 103.208534
LeftHandThumb1 -26.253704 0.000000 33.147579
RightShoulder -30.359517 42.000164 -65.830896
RightArm -56.052741 67.797584 -40.509690
RightForeArm 11.102220 0.000000 63.461029
RightHand 19.878145 0.000000 -87.332294
RightHandThumb1 -24.326973 -0.000000 -32.862282
LeftUpLeg 5.938042 9.730459 13.624277
LeftLeg 78.597383 -0.000000 -0.000000
LeftFoot -27.504510 4.160220 -19.149151
LeftToeBase -13.352055 -0.000000 0.000000
RightUpLeg 1.443124 -21.432693 -9.247585
RightLeg 76.037789 -0.000000 -0.000000
RightFoot 0.370096 -10.300130 3.332602
RightToeBase -22.274075 -0.000000 0.000000
2838
root -18.613964 26.853406 -1.747197 363.486382 -81.645136 -418.814397
Spine -76.760103 -16.149323 5.818677
Head -94.596740 5.520239 16.084564
LeftShoulder -16.831565 -3.201000 50.144257
LeftArm 223.600230 -61.685486 -208.078301
LeftForeArm -5.850168 -0.000000 42.677889
LeftHand 20.796914 0.000000 103.020583
LeftHandThumb1 -26.253704 0.000000 33.147579
RightShoulder -30.322803 42.011390 -65.818475
RightArm -56.078362 67.957227 -40.517253
RightForeArm 10.917301 -0.000000 63.627343
RightHand 19.908600 -0.000000 -87.361235
RightHandThumb1 -24.326973 -0.000000 -32.862282
LeftUpLeg 5.979310 9.739519 13.571211
LeftLeg 78.778420 -0.000000 -0.000000
LeftFoot -27.927967 4.143200 -19.053045
LeftToeBase -13.583833 -0.000000 0.000000
RightUpLeg 1.656904 -21.421608 -9.271822
RightLeg 76.002688 -0.000000 -0.000000
RightFoot -0.887708 -10.376589 3.726778
RightToeBase -21.515439 -0.000000 0.000000
2839
root -18.663044 26.817616 -1.730816 362.883663 -81.546751 -418.072855
Spine -76.842517 -16.144795 5.768186
Head -94.580242 5.383026 15.929608
LeftShoulder -16.838380 -2.902096 50.248775
LeftArm 222.832329 -61.427581 -207.874970
LeftForeArm -5.717809 -0.000000 43.024110
LeftHand 20.799517 -0.000000 103.407730
LeftHandThumb1 -26.253704 0.000000 33.147579
RightShoulder -30.350649 42.045111 -65.938611
RightArm -55.901508 67.993568 -40.292331
RightForeArm 10.776780 -0.000000 63.768668
RightHand 19.989002 -0.000000 -87.504783
RightHandThumb1 -24.326973 -0.000000 -32.862282
LeftUpLeg 5.958450 9.716890 13.507981
LeftLeg 78.861540 -0.000000 -0.000000
LeftFoot -28.265772 3.970462 -18.759517
LeftToeBase -13.911909 -0.000000 0.000000
RightUpLeg 1.793349 -21.436237 -9.279929
RightLeg 76.029439 -0.000000 -0.000000
RightFoot -2.128724 -10.339282 4.163151
RightToeBase -20.388971 -0.000000 0.000000
2840
root -18.710097 26.778264 -1.711302 362.324928 -81.468537 -417.394495
Spine -76.842671 -16.140258 5.778998
Head -94.606059 5.283377 15.933594
LeftShoulder -16.997750 -2.860618 50.292414
LeftArm 222.247389 -61.393600 -207.615773
LeftForeArm -5.456596 -0.000000 43.328102
LeftHand 20.536344 -0.000000 103.455712
LeftHandThumb1 -26.253704 0.000000 33.147579
RightShoulder -30.510428 42.100730 -66.072067
RightArm -55.580064 68.073311 -39.912003
RightForeArm 10.712759 -0.000000 63.899789
RightHand 20.023917 0.000000 -87.618978
RightHandThumb1 -24.326973 -0.000000 -32.862282
LeftUpLeg 5.953851 9.733156 13.456461
LeftLeg 78.846193 -0.000000 -0.000000
LeftFoot -28.669071 4.017475 -17.959692
LeftToeBase -13.532101 -0.000000 0.000000
RightUpLeg 1.895588 -21.361517 -9.269281
RightLeg 76.109389 -0.000000 -0.000000
RightFoot -3.296376 -10.272306 4.671427
RightToeBase -19.901027 -0.000000 0.000000
2841
root -18.764842 26.740112 -1.692060 361.574326 -81.387234 -416.542398
Spine -76.869875 -16.171024 5.785580
Head -94.547432 5.272412 15.877460
LeftShoulder -17.048983 -2.773854 50.368694
LeftArm 221.889830 -61.336219 -207.558068
LeftForeArm -5.298259 -0.000000 43.604880
LeftHand 20.431930 0.000000 103.381356
LeftHandThumb1 -26.253704 0.000000 33.147579
RightShoulder -30.526190 42.119751 -66.016819
RightArm -55.469281 68.323365 -39.741631
RightForeArm 10.463686 -0.000000 64.107151
RightHand 20.023056 -0.000000 -87.506308
RightHandThumb1 -24.326973 -0.000000 -32.862282
LeftUpLeg 5.977501 9.732739 13.401216
LeftLeg 78.790591 -0.000000 -0.000000
LeftFoot -28.983975 3.822816 -17.797345
LeftToeBase -13.561638 -0.000000 0.000000
RightUpLeg 1.972244 -21.120870 -9.231346
RightLeg 76.235029 -0.000000 -0.000000
RightFoot -4.437450 -10.126734 5.403268
RightToeBase -19.388151 -0.000000 0.000000
